<svg viewBox="0 0 400 400" xmlns="http://www.w3.org/2000/svg" fill-rule="evenodd" clip-rule="evenodd" stroke-linejoin="round" stroke-miterlimit="2"><circle cx="200" cy="200" r="200" fill="#a80038"/><path d="M85.765 128.992c-1.222.236-2.215 1.856-3.524 5.743-.697 2.07-8.054 23.573-16.351 47.786-8.295 24.213-15.219 44.547-15.384 45.187-.873 3.364 3.519 5.791 5.997 3.314.409-.409 1.978-3.21 3.487-6.223 12.759-25.484 37.656-36.537 63.488-28.185 19.988 6.463 30.911 17.846 36.85 38.401 3.966 13.728 3.351 20.338-3.816 40.946-1.368 3.933-.473 6.25 2.412 6.25 1.493 0 11.086-4.288 16.233-7.257 8.251-4.759 20.746-14.252 26.305-19.986l1.422-1.468h46.761v10.992c0 14.735-.811 13.573 9.475 13.571 10.646 0 9.942.987 9.967-13.955l.018-10.608h5.38c7.786 0 7.696.118 7.696-10.048 0-10.167.09-10.049-7.696-10.049h-5.38l-.002-50.483c-.001-53.342.024-52.429-1.515-53.437-1.3-.852-15.151-.835-16.456.019-1.52.997-1.487-.192-1.487 53.04v50.861h-15.331c-8.432 0-15.268-.108-15.191-.239.078-.132.713-1.18 1.412-2.33 7.147-11.744 13.599-27.878 12.344-30.864-.806-1.915-1.106-1.977-9.638-1.977-10.165 0-9.297-.492-11.811 6.699-4.599 13.153-15.112 28.598-26.225 38.525l-3.03 2.707-.363-4.107c-1.364-15.46-8.585-32.639-18.543-44.117-16.308-18.797-47.606-28.729-70.849-22.482-1.642.441-3.039.748-3.105.682-.065-.066 1.9-6.175 4.368-13.577l4.487-13.458h38.429c41.373 0 39.744.064 40.622-1.577.2-.373.328-3.672.328-8.407 0-8.8-.079-9.113-2.486-9.781-1.147-.319-87.67-.423-89.298-.108m215.979.128c-2.291.662-2.374 1.036-2.268 10.106l.095 8.101.878.755c.483.416 1.381.849 1.994.964l1.115.21v113.719l.918 1.244c.504.685 3.785 4.079 7.29 7.545l6.373 6.3h1.613c1.387 0 1.723-.129 2.387-.919l.773-.919.212-15.589c.117-8.575.212-41.071.212-72.214 0-63.419.188-58.413-2.232-59.238-1.351-.461-17.802-.516-19.36-.065" fill="#fff"/></svg>