<svg id="Layer_2" data-name="Layer 2" xmlns="http://www.w3.org/2000/svg" viewBox="0 0 374.26 169.53"><title>FoodTruckEugeneLogoWhite</title><path d="M256.78,165.85c-3.25,3.12-7.15,5-10.65,5-2.73,0-7.93-2.4-9-4.68a8.15,8.15,0,0,1-.58-3.31c0-9,9-17.67,14.74-17.67.33,0,.59.07.91.07,1.76.26,5.78,3.18,5.78,5.65-.32,4.61-5.19,10.07-8.24,10.07a12.13,12.13,0,0,1-5-1.95,11.24,11.24,0,0,0-1,4.35c0,2.34,1,3.12,3.44,3.12,3.44,0,7.15-2.73,11.3-8.06a1.91,1.91,0,0,1,1.43-.84,1.91,1.91,0,0,1,1.43,2.86A34.07,34.07,0,0,1,256.78,165.85Zm-5.13-15.33c-.72,0-2.92,1.88-4.94,4.93a3.91,3.91,0,0,0,1.82.65c1.37,0,3.44-3.89,3.44-5.13a.55.55,0,0,0-.13-.39C251.78,150.58,251.71,150.52,251.65,150.52Z" transform="translate(-16.13 -17.1)" style="fill:#fff"/><path d="M276,170.78a6.09,6.09,0,0,1-5.78-2.85,13,13,0,0,1-7.21,2.85c-.78,0-6.57-.58-6.57-6.82,0-4.41,9.42-16.89,11.37-17.92a2.38,2.38,0,0,1,1-.2c2,0,4.93,2.47,4.93,4,0,1-5.32,8.25-7.08,10.91-1.23,1.82-2.34,3.64-2.34,4.68a.67.67,0,0,0,.65.71c1.37,0,3.64-1.88,9.42-11.3,1.63-2.66,5.26-9,7.08-9s5,2.6,5,4c0,1-5.26,8-7.08,10.91-1.42,2.14-2.2,4-2.2,5a.89.89,0,0,0,1,1c2.14,0,7-4.68,9.42-7.86a2.49,2.49,0,0,1,1.95-1.24,1.63,1.63,0,0,1,1.49,1.76,2.71,2.71,0,0,1-.39,1.36C288.35,164.61,282.11,170.78,276,170.78Z" transform="translate(-16.13 -17.1)" style="fill:#fff"/><path d="M303.55,172c-1,10.91-6.37,14.61-12.93,14.61a9.59,9.59,0,0,1-2.08-.26c-2.08-.65-5.46-4.22-5.46-7.21,0-4.41,9.1-5.39,13.65-8.18.19-.85.39-1.69.52-2.14-1.3,1.29-2.28,2.2-4.1,2.2-3,0-6.75-3.7-6.75-8.7.19-6.56,9.55-17.08,15.65-17.08,1.56,0,2.86,2.14,3.64,3.63,1.62-1.95,2.14-2.14,2.73-2.14,1.62,0,5.13,1.23,5.13,3.12,0,.65-1.82,3.18-2.34,4-2.47,3.57-6.49,9.87-6.49,13.12,0,.26.06.33.26.33,3.24-1,8-6.89,9.54-8.64a2.34,2.34,0,0,1,1.69-.91,1.68,1.68,0,0,1,1.63,1.75,2.24,2.24,0,0,1-.52,1.5C314.59,164.48,309.65,169.55,303.55,172Zm-14.75,8c0,.78,1.24,1.76,2.47,1.76,3.38,0,4.68-4.61,4.94-6.43C294.84,176.17,288.8,178.45,288.8,180.07Zm13.71-29c-1.24,0-4.09,3.63-5.85,6.56-2.4,3.9-3.31,6.62-3.31,7.53,0,.39.13.46.32.46,1.63,0,4.87-4.87,5.65-6.43a53.42,53.42,0,0,1,3.77-6.76C303,151.82,302.9,151,302.51,151Z" transform="translate(-16.13 -17.1)" style="fill:#fff"/><path d="M334.33,165.85c-3.24,3.12-7.14,5-10.65,5-2.73,0-7.92-2.4-9-4.68a8.14,8.14,0,0,1-.59-3.31c0-9,9-17.67,14.75-17.67.32,0,.58.07.91.07,1.75.26,5.78,3.18,5.78,5.65-.33,4.61-5.2,10.07-8.25,10.07a12.1,12.1,0,0,1-5-1.95,11.29,11.29,0,0,0-1,4.35c0,2.34,1,3.12,3.45,3.12,3.44,0,7.14-2.73,11.3-8.06a1.88,1.88,0,0,1,1.43-.84,1.81,1.81,0,0,1,1.69,1.88,1.9,1.9,0,0,1-.26,1A35,35,0,0,1,334.33,165.85Zm-5.13-15.33c-.71,0-2.92,1.88-4.93,4.93a3.84,3.84,0,0,0,1.82.65c1.36,0,3.44-3.89,3.44-5.13a.59.59,0,0,0-.13-.39C329.33,150.58,329.27,150.52,329.2,150.52Z" transform="translate(-16.13 -17.1)" style="fill:#fff"/><path d="M353.76,172.34c-1.3,0-6.3-3.12-6.3-6.56,0-1,2.2-5.39,3.76-8.38a77.11,77.11,0,0,0-12.92,13.06,1.58,1.58,0,0,1-1.37.65c-2.21,0-5.26-2.86-5.26-3.57,0-2.86,9.61-19.82,12.28-19.82,1.1,0,5.58,1.69,5.58,3.58,0,.32-3,4-4.35,6.56C349.27,154,357.72,146,359.93,146s3.5,3.57,3.5,6.11A3.25,3.25,0,0,1,363,154c-2.79,3.24-7.4,10.19-7.4,13,0,.39.13.39.38.39,2.21,0,8.45-7.08,9.68-8.77a2.12,2.12,0,0,1,1.63-.91,1.8,1.8,0,0,1,1.75,1.82,2.28,2.28,0,0,1-.39,1.17C367,163,358.82,172.34,353.76,172.34Z" transform="translate(-16.13 -17.1)" style="fill:#fff"/><path d="M385.52,165.85c-3.25,3.12-7.15,5-10.65,5-2.73,0-7.93-2.4-9-4.68a8.15,8.15,0,0,1-.58-3.31c0-9,9-17.67,14.74-17.67.33,0,.59.07.91.07,1.76.26,5.78,3.18,5.78,5.65-.32,4.61-5.19,10.07-8.25,10.07a12.1,12.1,0,0,1-5-1.95,11.24,11.24,0,0,0-1,4.35c0,2.34,1,3.12,3.44,3.12,3.44,0,7.15-2.73,11.3-8.06a1.91,1.91,0,0,1,1.43-.84,1.91,1.91,0,0,1,1.43,2.86A34.07,34.07,0,0,1,385.52,165.85Zm-5.13-15.33c-.72,0-2.93,1.88-4.94,4.93a3.87,3.87,0,0,0,1.82.65c1.36,0,3.44-3.89,3.44-5.13a.55.55,0,0,0-.13-.39C380.52,150.58,380.45,150.52,380.39,150.52Z" transform="translate(-16.13 -17.1)" style="fill:#fff"/><path d="M16.13,145.81h15.6v3.57H20.26V157H30v3.56H20.26v9.5H16.13Z" transform="translate(-16.13 -17.1)" style="fill:#fff"/><path d="M51.51,161.65c0,5.72-3.71,8.77-9.56,8.77s-9.5-3-9.5-8.77V154.2c0-5.68,3.71-8.73,9.57-8.73s9.49,3.05,9.49,8.73Zm-4.12-7.45c0-3.33-2.08-5.16-5.37-5.16s-5.44,1.83-5.44,5.16v7.45c0,3.36,2.08,5.16,5.37,5.16s5.44-1.8,5.44-5.16Z" transform="translate(-16.13 -17.1)" style="fill:#fff"/><path d="M73.2,161.65c0,5.72-3.71,8.77-9.56,8.77s-9.5-3-9.5-8.77V154.2c0-5.68,3.71-8.73,9.57-8.73s9.49,3.05,9.49,8.73Zm-4.12-7.45c0-3.33-2.08-5.16-5.37-5.16s-5.44,1.83-5.44,5.16v7.45c0,3.36,2.07,5.16,5.37,5.16s5.44-1.8,5.44-5.16Z" transform="translate(-16.13 -17.1)" style="fill:#fff"/><path d="M94.89,161.37c0,5.68-3.71,8.7-9.56,8.7H76.18V145.81H85.4c5.78,0,9.49,3,9.49,8.7Zm-4.12-6.86c0-3.33-2.08-5.13-5.37-5.13H80.3v17.09h5c3.36,0,5.44-1.77,5.44-5.1Z" transform="translate(-16.13 -17.1)" style="fill:#fff"/><path d="M105.18,145.81h18.95v3.57h-7.41v20.69h-4.13V149.38h-7.41Z" transform="translate(-16.13 -17.1)" style="fill:#fff"/><path d="M125.48,145.81h10c4.85,0,8,2.32,8,7.8,0,3.95-1.63,6.27-4.37,7.28l4.61,9.18H139l-4.16-8.63H129.6v8.63h-4.12Zm4.12,12.06h5.72c2.39,0,3.92-1.18,3.92-4.26s-1.53-4.23-3.92-4.23H129.6Z" transform="translate(-16.13 -17.1)" style="fill:#fff"/><path d="M164.7,145.81v16c0,5.62-3.64,8.6-9.39,8.6s-9.32-3-9.32-8.6v-16h4.12v16c0,3.26,2,5,5.2,5s5.27-1.73,5.27-5v-16Z" transform="translate(-16.13 -17.1)" style="fill:#fff"/><path d="M186.43,161.82V162c0,5.47-3.64,8.42-9.43,8.42s-9.46-3-9.46-8.77V154.2c0-5.68,3.67-8.73,9.53-8.73s9.36,2.94,9.36,8.42V154H182.3v-.14c0-3.12-2-4.85-5.23-4.85s-5.4,1.83-5.4,5.16v7.45c0,3.36,2,5.16,5.33,5.16s5.3-1.7,5.3-4.81v-.18Z" transform="translate(-16.13 -17.1)" style="fill:#fff"/><path d="M195.57,159.64l-2.32,2.6v7.83h-4.12V145.81h4.12v10.74l9.18-10.74h5l-9.22,10.64,9.81,13.62h-5Z" transform="translate(-16.13 -17.1)" style="fill:#fff"/><path d="M219.1,160.16l-4.3-.76c-4-.73-6.34-3-6.34-6.69,0-4.82,3.33-7.24,9-7.24s8.95,2.46,8.95,7.34v.45h-4.13v-.45c0-2.49-1.7-3.77-4.82-3.77s-4.74,1.1-4.74,3.39c0,1.77,1.24,2.84,3.12,3.19l4.29.76c4.13.76,6.34,3,6.34,6.66,0,5-3.43,7.38-9,7.38s-9-2.46-9-7.35v-.45h4.12v.45c0,2.49,1.8,3.74,4.92,3.74s4.82-1,4.82-3.46C222.22,161.55,221,160.51,219.1,160.16Z" transform="translate(-16.13 -17.1)" style="fill:#fff"/><path d="M324.79,110.48a3.53,3.53,0,0,0-.91-.88,12.47,12.47,0,0,0-1.17-.74c0,.07,0,.13,0,.2l-11.33.18-3.29.05a20.3,20.3,0,0,0-10.72-7c-2-.53-6.63-1.73-11.5.4a15.55,15.55,0,0,0-5.2,3.76,21,21,0,0,0-2.87,4.47c-1.68,3-3.05,5.52-4,7.28a3.5,3.5,0,0,1-1.35,1.56,3.45,3.45,0,0,1-1.93.51h-1.9l-4.9,0,4.71.25,5.65.31L278,121a13,13,0,1,0,25.48-4.68l4.54-.9c.59,1,.93,1.15,1.14,1.1s.26-.22.48-.22a.75.75,0,0,1,.51.37l1.8,1.43a1.83,1.83,0,0,0,1.46.18c.77-.28,1-1.19,1.21-1.87a4.62,4.62,0,0,0,.15-1.75l8.4,3.18.18.56a2.5,2.5,0,0,0,1.28-.67,2.36,2.36,0,0,0,.66-1.13v-5.25A3.37,3.37,0,0,0,324.79,110.48Zm-33.9,17.37a8.16,8.16,0,1,1,8.15-8.16A8.16,8.16,0,0,1,290.89,127.85Z" transform="translate(-16.13 -17.1)" style="fill:#333"/><path d="M115.3,27.62,109,24.24l-.23-1.18-1.29-.18a.29.29,0,0,1-.22-.25.28.28,0,0,1,.22-.29l.94-.22a6.74,6.74,0,0,1,1.12-1.77,6.45,6.45,0,0,1,1-1,94,94,0,0,1,9.91-.49c3,0,5.82.15,8.41.39a5.06,5.06,0,0,1,1.39.95,5.37,5.37,0,0,1,1.38,2.27l.9.31a.32.32,0,0,1,.27.28.34.34,0,0,1-.32.35l-1.29.15L131,24.84,127,27.75Z" transform="translate(-16.13 -17.1)" style="fill:#333"/><path d="M143.09,26.36l32.19.06a1.3,1.3,0,0,0,1-.7,1,1,0,0,0,0-.65,16.33,16.33,0,0,0-8.15-8l-23.94.07a16.36,16.36,0,0,0-1.48,4.19,8.26,8.26,0,0,0-.07,3.82,7.33,7.33,0,0,0,.44,1.18Z" transform="translate(-16.13 -17.1)" style="fill:#d10217"/><path d="M161.94,116a14.66,14.66,0,0,0-2.74-6.77,19.32,19.32,0,0,0-6-5.6A17.29,17.29,0,0,0,147,101a16.67,16.67,0,0,0-8,.48,18.29,18.29,0,0,0-6.93,3.7,16.87,16.87,0,0,0-3.81,4.76,16,16,0,0,0-1.74,6.08l-2.48-.12h0l-13.21-.17a12.13,12.13,0,0,0,2.6,1.31,12.71,12.71,0,0,0,1.56.46l15.73.24,0,.37-26.55,1a12.73,12.73,0,0,0-2.1.36c-.09,0-.35.08-1.08.31l-1.92.62a1.64,1.64,0,0,0-1.29.49,1.45,1.45,0,0,0-.23,1.61,1.63,1.63,0,0,0,1.3.72,2.13,2.13,0,0,0,1.25-.23,15.13,15.13,0,0,1,3.76-1.07c.48-.07.94-.11,1.38-.13l25.56-1.4A13,13,0,0,0,156,123l6.05-5.47A11.56,11.56,0,0,0,161.94,116Zm-18.28,11a8.16,8.16,0,1,1,8.16-8.16A8.16,8.16,0,0,1,143.66,127.09Z" transform="translate(-16.13 -17.1)" style="fill:#333"/><path d="M158.93,27.62l-6.34-3.38-.23-1.18-1.3-.18a.29.29,0,0,1-.22-.25.28.28,0,0,1,.22-.29l.94-.22a6.74,6.74,0,0,1,1.12-1.77,7.43,7.43,0,0,1,1-1,94.13,94.13,0,0,1,9.91-.49c3,0,5.83.15,8.42.39a5,5,0,0,1,1.38.95,5.26,5.26,0,0,1,1.38,2.27l.9.31a.32.32,0,0,1,.27.28.34.34,0,0,1-.31.35l-1.3.15-.21,1.25-4,2.91Z" transform="translate(-16.13 -17.1)" style="fill:#333"/><path d="M322.72,109.06l-11.33.18a22.87,22.87,0,0,0-4.63-5,24,24,0,0,0-7-3.83,21.77,21.77,0,0,0-8.2-1.36,16.66,16.66,0,0,0-13.4,6.48c-1.69,2-1.74,2.8-6,9.88-.39.64-1,1.64-1.92,2.9-.55.76-1.09,1.43-1.59,2l-4.9,0-21.48-.16-2.53,0-73.34-.55-1.9,0h0a19.87,19.87,0,0,0-.7-6.48c-.16-.56-.35-1.14-.58-1.74a20,20,0,0,0-6.79-8.79c-.34-.25-.86-.64-1.56-1.09l-.55-.34-.05,0a19.65,19.65,0,0,0-10-2.85h-.11c-.54,0-1.07,0-1.58.06h-.1c-.3,0-.6.06-.88.1a21.3,21.3,0,0,0-8.92,3.5,18.68,18.68,0,0,0-5.44,5,18.2,18.2,0,0,0-3.19,9h0l-13.21-.17-36.1-.47q.1-40.7.23-81.38c0-.67,0-1.34,0-2v-.77a1.15,1.15,0,0,1,.11-.52A1.86,1.86,0,0,1,77,29.86V28.22a1.62,1.62,0,0,1,.32-.93,1.66,1.66,0,0,1,1.15-.63l35.4.18,14.31.07,29.74.15h0l13.59.07,104.86.54a9.78,9.78,0,0,1,2.4.72,8.8,8.8,0,0,1,2.65,1.79,7.85,7.85,0,0,1,1.31,1.72,8.41,8.41,0,0,1,.83,2,2.17,2.17,0,0,1,.07.24q7.41,22.49,14.83,45l15.9,7.72a7.49,7.49,0,0,1,2.16,1.36,8.17,8.17,0,0,1,1.83,2.47,21.83,21.83,0,0,1,1.92,5.2c.5,2.21,1.21,5.12,2.32,9.11l.15,3.88C322.71,108.93,322.72,109,322.72,109.06Z" transform="translate(-16.13 -17.1)" style="fill:red"/><path d="M299,119.69a8.16,8.16,0,1,1-8.15-8.16A8.15,8.15,0,0,1,299,119.69Z" transform="translate(-16.13 -17.1)" style="fill:#333"/><path d="M299,119.69a8.16,8.16,0,1,1-8.15-8.16A8.15,8.15,0,0,1,299,119.69Z" transform="translate(-16.13 -17.1)" style="fill:#999"/><circle cx="275.16" cy="99.63" r="0.56" style="fill:gray"/><circle cx="272.88" cy="100.32" r="0.56" style="fill:gray"/><circle cx="271.75" cy="102.34" r="0.56" style="fill:gray"/><circle cx="272.22" cy="104.52" r="0.56" style="fill:gray"/><circle cx="274.27" cy="105.55" r="0.56" style="fill:gray"/><circle cx="277.2" cy="100.84" r="0.56" style="fill:gray"/><circle cx="277.75" cy="103.14" r="0.56" style="fill:gray"/><circle cx="276.39" cy="105.12" r="0.56" style="fill:gray"/><circle cx="274.68" cy="102.56" r="1.57" style="fill:#4d4d4d"/><path d="M124,115.93l2.48.11a16,16,0,0,1,1.74-6.08,16.87,16.87,0,0,1,3.81-4.76,18.29,18.29,0,0,1,6.93-3.7,16.84,16.84,0,0,1,8-.47,17.3,17.3,0,0,1,6.24,2.64,19.26,19.26,0,0,1,6,5.61,14.62,14.62,0,0,1,2.74,6.76,11.56,11.56,0,0,1,.09,1.5,12.7,12.7,0,0,1-.14,1.94l2.59,0a19.82,19.82,0,0,0-.7-6.48c-.16-.57-.35-1.15-.58-1.75a20.07,20.07,0,0,0-6.79-8.79,20.61,20.61,0,0,0-12.15-4.31,21.16,21.16,0,0,0-10.8,3A18.69,18.69,0,0,0,124,115.93Z" transform="translate(-16.13 -17.1)" style="fill:#4d4d4d"/><circle cx="143.66" cy="118.93" r="8.16" transform="translate(-21.23 214.32) rotate(-76.72)" style="fill:#333"/><circle cx="143.66" cy="118.93" r="8.16" transform="translate(-21.23 214.32) rotate(-76.72)" style="fill:#999"/><circle cx="127.93" cy="98.87" r="0.56" style="fill:gray"/><circle cx="125.66" cy="99.56" r="0.56" style="fill:gray"/><circle cx="124.53" cy="101.58" r="0.56" style="fill:gray"/><circle cx="125" cy="103.76" r="0.56" style="fill:gray"/><circle cx="127.05" cy="104.79" r="0.56" style="fill:gray"/><circle cx="129.97" cy="100.08" r="0.56" style="fill:gray"/><circle cx="130.53" cy="102.38" r="0.56" style="fill:gray"/><circle cx="129.17" cy="104.36" r="0.56" style="fill:gray"/><circle cx="127.46" cy="101.8" r="1.57" style="fill:#4d4d4d"/><path d="M79.26,85.91a2.15,2.15,0,0,0,.86,1.71l159.94.84q-.17,15.83-.34,31.63l2.53,0q.54-43.1,1.06-86.2h40.22a8.2,8.2,0,0,0-.83-2H75c0,.66,0,1.33,0,2H240.65q-.27,25.73-.55,51.46L80.17,84.23A2.14,2.14,0,0,0,79.26,85.91Z" transform="translate(-16.13 -17.1)" style="fill:#b71129;opacity:0.5"/><path d="M271.87,52h-21.1c-2-.07-3.62.58-4.17,1.79a2.13,2.13,0,0,0-.19.84l-.21,19.89a3.55,3.55,0,0,0,1.14,2.66,3.39,3.39,0,0,0,1.91.79l21.42.1a3.41,3.41,0,0,0,2.58-.91,3.37,3.37,0,0,0,1-2.18l.25-19A3.51,3.51,0,0,0,271.87,52Z" transform="translate(-16.13 -17.1)" style="fill:#ccc"/><path d="M288,53.08l7,20.4c.6,1.84.32,3.51-.63,4.15a1.84,1.84,0,0,1-.95.29l-10.94,0a2.55,2.55,0,0,1-2.17-.74,2.43,2.43,0,0,1-.59-1.73q0-10.81,0-21.63a3.37,3.37,0,0,1,.79-1.83,4.26,4.26,0,0,1,2.86-1.13,4.4,4.4,0,0,1,2.76.2A3.85,3.85,0,0,1,288,53.08Z" transform="translate(-16.13 -17.1)" style="fill:#ccc"/><path d="M311.39,109.24l-3.29.05a20.3,20.3,0,0,0-10.72-7c-2-.53-6.63-1.73-11.5.4a15.55,15.55,0,0,0-5.2,3.76,21,21,0,0,0-2.87,4.47c-1.68,3-3.05,5.52-4,7.28a3.5,3.5,0,0,1-1.35,1.56,3.45,3.45,0,0,1-1.93.51h-1.9c.5-.58,1-1.25,1.59-2,.92-1.26,1.53-2.26,1.92-2.9,4.24-7.08,4.29-7.87,6-9.88A16.66,16.66,0,0,1,291.52,99a21.77,21.77,0,0,1,8.2,1.36,24,24,0,0,1,7,3.83A22.87,22.87,0,0,1,311.39,109.24Z" transform="translate(-16.13 -17.1)" style="fill:#4d4d4d"/><path d="M327.53,114.38h-.85v-.46h2.26v.46h-.86v2.52h-.55Z" transform="translate(-16.13 -17.1)" style="fill:#333"/><path d="M331.78,115.68c0-.38,0-.84,0-1.25h0c-.1.37-.23.77-.35,1.15l-.44,1.28h-.42l-.4-1.27c-.11-.38-.22-.78-.3-1.16h0c0,.39,0,.87-.05,1.27l-.07,1.2h-.5l.2-3h.71l.39,1.2c.1.35.2.7.27,1h0c.08-.32.18-.68.29-1l.42-1.2h.7l.17,3h-.53Z" transform="translate(-16.13 -17.1)" style="fill:#333"/></svg>